<?xml version="1.0" encoding="UTF-8"?>
<svg id="_레이어_2" data-name="레이어_2" xmlns="http://www.w3.org/2000/svg" viewBox="0 0 220.27 40">
  <defs>
    <style>
      .cls-1 {
        fill: #fff;
      }
    </style>
  </defs>
  <g id="_레이어_1-2" data-name="레이어_1">
    <g>
      <path class="cls-1" d="M94.92,6.35h2.92V.8h-2.93c-7.66,0-13.87,6.21-13.87,13.87v25.33h5.56v-16.86h11.24v-5.55h-11.24v-2.93c0-4.59,3.73-8.32,8.32-8.32Z"/>
      <polygon class="cls-1" points="49.17 12 49.17 40 43.63 40 43.63 12 49.17 12 49.17 12"/>
      <polygon class="cls-1" points="114.13 .8 114.13 40 108.59 40 108.59 .8 114.13 .8 114.13 .8"/>
      <path class="cls-1" d="M20,0C8.95,0,0,8.95,0,20s8.95,20,20,20h20v-20C40,8.95,31.05,0,20,0ZM4,20c0-8.82,7.18-16,16-16s16,7.18,16,16v13.66l-14.31-14.55,3.17-9.09c.3-.87-.21-1.78-1.19-2.12-.93-.33-1.96.1-2.25.92l-2.58,7.4-4.57-4.65c-.68-.68-1.82-.73-2.55,0-.68.68-.73,1.82,0,2.55l10.96,11.14h-7.88c-.99,0-1.82.83-1.82,1.82,0,1.04.83,1.82,1.82,1.82h11.35s.07,0,.11-.01l6.99,7.11h-13.24c-8.82,0-16-7.18-16-16Z"/>
      <path class="cls-1" d="M79.2,25.86c0-7.8-6.33-14.13-14.13-14.13s-14.13,6.33-14.13,14.13h0v14.14h5.55v-14.13c0-4.74,3.84-8.59,8.59-8.59s8.59,3.84,8.59,8.59v14.13h5.55v-14.14h0Z"/>
      <path class="cls-1" d="M220.27,25.86c0-7.8-6.33-14.13-14.13-14.13s-14.13,6.33-14.13,14.13h0v14.14h5.55v-14.13c0-4.74,3.84-8.59,8.59-8.59s8.59,3.84,8.59,8.59v14.13h5.55v-14.14h0Z"/>
      <path class="cls-1" d="M187.86,11.73c-7.79.01-14.1,6.33-14.11,14.13h0v14.14h5.55v-14.13c0-4.74,3.84-8.59,8.59-8.59h2.64v-5.55h-2.67Z"/>
      <path class="cls-1" d="M137.65,30.21c-.37.65-.83,1.27-1.38,1.82-2.64,2.64-6.59,3.18-9.77,1.63l7.3-7.3h0s8.1-8.1,8.1-8.1c-.51-.76-1.09-1.48-1.77-2.16-5.47-5.47-14.33-5.47-19.8,0-5.47,5.47-5.47,14.33,0,19.8,5.47,5.47,14.33,5.47,19.8,0,.55-.55,1.03-1.13,1.47-1.73l-3.95-3.95ZM124.2,19.97c2.64-2.64,6.59-3.18,9.77-1.63l-11.4,11.4c-1.55-3.18-1.02-7.13,1.63-9.77Z"/>
      <path class="cls-1" d="M157.61,11.2c-7.95,0-14.4,6.45-14.4,14.4h0c0,7.95,6.45,14.4,14.4,14.4h14.4v-14.4c0-7.95-6.45-14.4-14.4-14.4ZM166.57,34.56h-8.96c-4.95,0-8.96-4.01-8.96-8.96h0c0-4.95,4.01-8.96,8.96-8.96s8.96,4.01,8.96,8.96v8.96Z"/>
    </g>
  </g>
</svg>