<?xml version="1.0" encoding="UTF-8"?>
<svg id="_레이어_2" data-name="레이어_2" xmlns="http://www.w3.org/2000/svg" viewBox="0 0 842.63 160">
  <defs>
    <style>
      .cls-1 {
        fill: #fff;
      }
    </style>
  </defs>
  <g id="Layer_1">
    <g>
      <path class="cls-1" d="M108.38,80c11.92-7.87,19.75-21.39,19.62-36.76-.17-24.13-20.46-43.24-44.59-43.24H4.8C2.15,0,0,2.15,0,4.8v150.4c0,2.65,2.15,4.8,4.8,4.8h78.61c24.08,0,44.42-19.12,44.59-43.24.13-15.37-7.7-28.93-19.62-36.76ZM69.47,118.4h-17.6V41.6h17.6v76.8Z"/>
      <path class="cls-1" d="M187.94,131.44h-11.94V25.13l11.94-2.7v109.01ZM222.48,54.4l9.38,6.97-24.59,30.7,28.43,33.97-9.38,7.38-33.11-40.78,29.27-38.23Z"/>
      <path class="cls-1" d="M271.64,88.09h14.91v-6.11c0-11.8-5.26-16.48-15.21-16.48-6.97,0-14.78,2.13-20.89,4.97l-3.56-8.38c7.54-4.27,16.62-6.81,24.73-6.81,17.76,0,26.43,8.53,26.43,27.29v48.88h-8.81l-1.43-8.24c-7.38,5.97-16.91,9.38-24.45,9.38-13.22,0-21.18-7.97-21.18-21.32,0-15.21,10.24-23.16,29.42-23.16l.04-.02ZM286.57,114.38v-17.91h-13.35c-13.51,0-19.62,4.54-19.62,14.21,0,7.81,4.27,12.22,11.94,12.22,6.97,0,16.06-3.7,21.03-8.53v.02Z"/>
      <path class="cls-1" d="M331.33,131.44h-11.94V25.13l11.94-2.7v109.01ZM365.86,54.4l9.38,6.97-24.59,30.7,28.43,33.97-9.38,7.38-33.11-40.78,29.27-38.23Z"/>
      <path class="cls-1" d="M415.02,88.09h14.92v-6.11c0-11.8-5.27-16.48-15.21-16.48-6.97,0-14.78,2.13-20.89,4.97l-3.56-8.38c7.53-4.27,16.62-6.81,24.72-6.81,17.76,0,26.43,8.53,26.43,27.29v48.88h-8.81l-1.42-8.24c-7.39,5.97-16.92,9.38-24.45,9.38-13.22,0-21.19-7.97-21.19-21.32,0-15.21,10.24-23.16,29.43-23.16l.03-.02ZM429.96,114.38v-17.91h-13.36c-13.5,0-19.61,4.54-19.61,14.21,0,7.81,4.27,12.22,11.94,12.22,6.97,0,16.05-3.7,21.03-8.53v.02Z"/>
      <path class="cls-1" d="M525.03,94.2c0,24.86-12.38,38.66-33.27,38.66s-33.26-13.78-33.26-38.66,12.65-38.94,33.26-38.94,33.27,13.92,33.27,38.94ZM470.88,94.2c0,18.91,7.67,28.86,20.88,28.86s20.89-9.95,20.89-28.86-7.67-29.13-20.89-29.13-20.88,10.24-20.88,29.13Z"/>
      <path class="cls-1" d="M542.78,129.17V25.41l19.05-3.41v37.1c4.54-2.84,10.51-4.83,17.05-4.83,20.19,0,29.56,13.78,29.56,37.8,0,26-14.21,41.5-37.8,41.5-10.94,0-22.59-2.13-27.86-4.4ZM561.83,71.32v47.47c2.98.43,4.97.43,6.82.43,11.94,0,20.45-7.54,20.45-26.72,0-14.49-3.56-22.89-17.05-22.89-4.27,0-7.96,1-10.24,1.7h.02Z"/>
      <path class="cls-1" d="M648.66,85.8h11.94v-2.56c0-8.24-2.57-12.94-13.78-12.94-6.97,0-13.36,1.43-20.19,4.97l-5.26-13.08c7.24-4.97,17.91-7.97,27.72-7.97,19.18,0,29.27,9.38,29.27,28.86v48.32h-13.36l-2.13-6.4c-7.67,5.97-15.92,8.38-22.59,8.38-14.65,0-22.75-8.67-22.75-23.59,0-15.78,10.81-24.02,31.13-24.02v.03ZM660.6,112.68v-14.64h-10.24c-10.24,0-15.64,4.11-15.64,11.65,0,5.4,3.13,8.95,9.38,8.95s13.07-2.98,16.48-5.97l.02.02Z"/>
      <path class="cls-1" d="M695.41,56.53h13.51l2.84,7.54c6.67-5.97,15.91-9.81,23.88-9.81,16.78,0,25.16,10.38,25.16,29.13v48.04h-19.05v-48.61c0-8.38-3.13-11.94-13.22-11.94-3.97,0-9.67,1.14-14.07,2.84v57.69h-19.05V56.53Z"/>
      <path class="cls-1" d="M816.77,91.64l25.86,30.99-14.35,11.37-31.4-38.51v35.96h-19.05V25.41l19.05-3.41v68.93l28.7-38.94,14.21,9.94-23.02,29.7Z"/>
    </g>
  </g>
</svg>