<?xml version="1.0" encoding="utf-8"?>
<!-- Generator: Adobe Illustrator 27.8.0, SVG Export Plug-In . SVG Version: 6.00 Build 0)  -->
<svg version="1.1" xmlns="http://www.w3.org/2000/svg" xmlns:xlink="http://www.w3.org/1999/xlink" x="0px" y="0px"
	 viewBox="0 0 604.7 144.1" style="enable-background:new 0 0 604.7 144.1;" xml:space="preserve">
<style type="text/css">
	.st0{fill:#61A60E;}
	.st1{fill:#6C4B94;}
	.st2{fill:#0098C7;}
	.st3{fill:#005C8A;}
	.st4{fill:#FFFFFF;}
	.st5{fill:#A368ED;}
	.st6{fill:#01B8C5;}
	.st7{fill:#0087EE;}
</style>
<g id="color__x2B__black_text">
</g>
<g id="Color__x2B__grey_text">
</g>
<g id="color__x2B__white_text">
</g>
<g id="AA_color__x2B__white_text">
</g>
<g id="all_white">
	<g>
		<path class="st4" d="M145.7,95.9L110.5,140l-2.9-6l31.5-39.5L145.7,95.9z M40.1,133.9L8.6,94.4l-6.5,1.5L37.3,140L40.1,133.9z"/>
		<path class="st4" d="M0,86.7l12.5-54.9l5.2,4.2L6.5,85.3L0,86.7z M147.8,86.7l-12.5-54.9l-5.2,4.2l11.3,49.3L147.8,86.7z"/>
		<path class="st4" d="M102.1,144H45.7l2.9-6h50.6L102.1,144z M129.4,24.4L78.6,0v6.7l45.6,21.9L129.4,24.4z M69.2,6.6L23.6,28.6
			l-5.2-4.1L69.2,0L69.2,6.6z"/>
		<path class="st4" d="M98.9,126.6H48.8L17.6,87.4l11.1-48.9l45.2-21.8l45.2,21.8l11.1,48.9L98.9,126.6z M51.7,120.6H96L123.7,86
			l-9.9-43.2L73.9,23.5l-40,19.2l-9.9,43.2L51.7,120.6z"/>
	</g>
	<g>
		<g>
			<path class="st4" d="M226.7,47.1l-18.9,43h-5.3l-18.9-43h5.3l16.3,37l16.3-37H226.7z"/>
			<path class="st4" d="M232.7,47.1h4.9l15.9,29.9l15.9-29.9h4.9v43h-4.9V57.7l-15.9,29.9l-15.9-29.9v32.4h-4.9V47.1z"/>
			<path class="st4" d="M279.8,57.8h5l8.1,26.1l8.8-26.1h4.1l8.8,26.1l8.1-26.1h5l-10.9,32.3h-4.4l-8.6-25.8l-8.7,25.8h-4.4
				L279.8,57.8z"/>
			<path class="st4" d="M353.1,60.7c2.2,2.4,3.3,5.7,3.3,9.7v19.7h-4.7V85c-1.1,1.8-2.7,3.3-4.8,4.3c-2.1,1-4.3,1.5-6.5,1.5
				c-3.5,0-6.3-0.9-8.5-2.8c-2.2-1.9-3.3-4.4-3.3-7.5c0-2.1,0.6-3.9,1.7-5.6c1.1-1.6,2.7-2.9,4.6-3.8c1.9-0.9,4.1-1.3,6.3-1.3
				c3.3,0,6.8,0.6,10.5,1.8v-1.2c0-2.6-0.7-4.8-2-6.7c-1.3-1.8-3.6-2.7-6.8-2.7c-1.5,0-2.9,0.3-4.5,0.8c-1.5,0.5-3.2,1.2-5,2.2
				l-1.9-3.8c4.2-2.1,8-3.1,11.6-3.1C347.6,57,350.9,58.2,353.1,60.7z M347.8,84.9c2.1-1.2,3.4-2.8,4-5V75c-3.2-0.9-6.4-1.3-9.8-1.3
				c-2.5,0-4.6,0.6-6.3,1.9c-1.7,1.3-2.6,2.8-2.6,4.8c0,2,0.8,3.5,2.3,4.7c1.5,1.1,3.4,1.7,5.8,1.7
				C343.6,86.7,345.8,86.1,347.8,84.9z"/>
			<path class="st4" d="M374,58.9c2.2-1.3,4.8-1.9,7.8-1.9v4.2c-2.4,0-4.6,0.5-6.5,1.4c-1.9,0.9-3.4,2.2-4.4,3.8
				c-1.1,1.6-1.6,3.5-1.6,5.6v18.1h-4.7V57.8h4.7v6.3C370.2,61.9,371.8,60.2,374,58.9z"/>
			<path class="st4" d="M405,85.5c1.9-0.8,3.4-1.7,4.4-2.8l2.9,3.1c-1.4,1.5-3.3,2.7-5.8,3.6c-2.5,0.9-4.9,1.4-7.2,1.4
				c-2.9,0-5.6-0.7-8.1-2.2s-4.5-3.5-6-6.1c-1.5-2.6-2.3-5.5-2.3-8.7c0-3.1,0.7-6,2.2-8.6c1.4-2.6,3.4-4.6,5.8-6.1
				c2.4-1.5,5.1-2.2,8-2.2c4.8,0,8.6,1.7,11.3,5.1c2.7,3.4,4,7.9,4,13.6h-26.4c0.3,3.2,1.6,5.8,3.7,7.9c2.1,2,4.7,3.1,7.8,3.1
				C401.2,86.7,403.1,86.3,405,85.5z M391.5,64.1c-2.1,1.9-3.3,4.4-3.8,7.5h21.8c-0.3-3.1-1.4-5.6-3.2-7.5c-1.8-1.9-4.2-2.8-7.3-2.8
				C396.1,61.2,393.6,62.2,391.5,64.1z"/>
			<path class="st4" d="M449.2,51.8h-14.4v-4.6h33.8v4.6h-14.4v38.3h-4.9V51.8z"/>
			<path class="st4" d="M489.5,60.7c2.2,2.4,3.3,5.7,3.3,9.7v19.7h-4.7V85c-1.1,1.8-2.7,3.3-4.8,4.3c-2.1,1-4.3,1.5-6.5,1.5
				c-3.5,0-6.3-0.9-8.5-2.8c-2.2-1.9-3.3-4.4-3.3-7.5c0-2.1,0.6-3.9,1.7-5.6c1.1-1.6,2.7-2.9,4.6-3.8c1.9-0.9,4.1-1.3,6.3-1.3
				c3.3,0,6.8,0.6,10.5,1.8v-1.2c0-2.6-0.7-4.8-2-6.7c-1.3-1.8-3.6-2.7-6.8-2.7c-1.5,0-2.9,0.3-4.5,0.8c-1.5,0.5-3.2,1.2-5,2.2
				l-1.9-3.8c4.2-2.1,8-3.1,11.6-3.1C484.1,57,487.3,58.2,489.5,60.7z M484.2,84.9c2.1-1.2,3.4-2.8,4-5V75c-3.2-0.9-6.4-1.3-9.8-1.3
				c-2.5,0-4.6,0.6-6.3,1.9c-1.7,1.3-2.6,2.8-2.6,4.8c0,2,0.8,3.5,2.3,4.7c1.5,1.1,3.4,1.7,5.8,1.7C480,86.7,482.2,86.1,484.2,84.9z
				"/>
			<path class="st4" d="M522.6,58.6c1.8,1,3.3,2.5,4.3,4.4c1,1.9,1.5,4.1,1.5,6.5v20.6h-4.7V70.2c0-2.7-0.8-4.8-2.3-6.5
				c-1.5-1.6-3.4-2.5-5.8-2.5c-1.8,0-3.5,0.4-5,1.1c-1.5,0.8-2.8,1.8-3.7,3c-0.9,1.3-1.3,2.7-1.3,4.2v20.6H501V57.8h4.7v5.1
				c1-1.8,2.4-3.2,4.3-4.3c1.9-1.1,4-1.6,6.3-1.6C518.7,57,520.8,57.5,522.6,58.6z"/>
			<path class="st4" d="M532.9,86.4l19.1-24.2h-18.7v-4.4h25v3.7l-19.1,24.2h19.3v4.4h-25.5V86.4z"/>
			<path class="st4" d="M590.2,57.8v32.3h-4.7V85c-1,1.8-2.4,3.2-4.3,4.3c-1.9,1.1-4,1.6-6.3,1.6c-2.4,0-4.5-0.5-6.3-1.6
				c-1.8-1-3.3-2.5-4.3-4.4c-1-1.9-1.5-4.1-1.5-6.5V57.8h4.7v19.9c0,2.7,0.8,4.8,2.3,6.5c1.5,1.6,3.4,2.5,5.8,2.5
				c1.8,0,3.5-0.4,5-1.1c1.5-0.8,2.8-1.8,3.7-3c0.9-1.3,1.3-2.7,1.3-4.2V57.8H590.2z"/>
		</g>
		<g>
			<g>
				<path class="st4" d="M596,57.3L596,57.3c0-2.4,1.9-4.4,4.3-4.4c2.4,0,4.3,2,4.3,4.3v0c0,2.4-1.9,4.4-4.3,4.4
					C597.9,61.7,596,59.7,596,57.3z M604.2,57.3L604.2,57.3c0-2.1-1.6-3.9-3.8-3.9c-2.2,0-3.8,1.8-3.8,3.9v0c0,2.1,1.6,3.9,3.8,3.9
					C602.5,61.2,604.2,59.4,604.2,57.3z M598.6,55h2.1c1,0,1.8,0.5,1.8,1.5c0,0.7-0.4,1.2-1,1.4l1.1,1.6h-1.3l-1-1.4h-0.7v1.4h-1.1
					V55z M600.6,57.1c0.5,0,0.8-0.2,0.8-0.6c0-0.4-0.3-0.6-0.8-0.6h-0.9v1.2H600.6z"/>
			</g>
		</g>
	</g>
</g>
<g id="all_black">
</g>
</svg>

