<svg xmlns="http://www.w3.org/2000/svg" id="_레이어_2" data-name="레이어 2" viewBox="0 0 517.53 108.85"><defs><clipPath id="clippath"><path d="M0 0h130v108.85H0z" class="cls-2"/></clipPath><clipPath id="clippath-1"><path d="M160 3h357.53v103H160z" class="cls-2"/></clipPath><style>.cls-2{fill:none;stroke-width:0}</style></defs><g id="_레이어_1-2" data-name="레이어 1"><g fill-rule="evenodd" stroke-width="0" clip-path="url(#clippath)"><path fill="#f60" d="M61.89 0H39.56c-3.76 0-7.3 1.99-9.55 5.39L1.21 48.71c-2.97 4.45-.16 10.85 4.78 10.85h28.29l32.39-48.71C69.64 6.4 66.83 0 61.89 0zm.72 59.56H34.32L8.53 98.01c-2.97 4.45-.16 10.85 4.78 10.85h22.33c3.75 0 7.29-2 9.55-5.39l22.2-33.06c2.97-4.45.16-10.85-4.78-10.85z"/><path fill="#eda737" d="M67.39 49.29h28.3l25.79-38.45c2.97-4.45.16-10.85-4.78-10.85H94.37c-3.76 0-7.3 1.99-9.56 5.39l-22.2 33.06c-2.97 4.45-.16 10.85 4.78 10.85zm.72 59.56h22.34c3.75 0 7.29-1.99 9.56-5.38l28.78-43.33c2.97-4.45.16-10.85-4.78-10.85H95.72L63.34 98c-2.97 4.45-.16 10.85 4.78 10.85z"/></g><g clip-path="url(#clippath-1)"><path stroke-width="0" d="M256.31 68.65c4.48-21.45 23.81-37.33 45.51-37.33s34.47 15.9 29.99 37.33C327.33 90.1 308 106 286.23 106s-34.41-15.89-29.93-37.35zm52.81 0c1.98-9.54-2.99-16.25-11.71-16.25s-16.44 6.72-18.42 16.25c-1.98 9.54 2.99 16.25 11.63 16.25s16.5-6.72 18.48-16.25h.02zm24.69 35.46 19.92-97.8h25.89l-19.92 97.8h-25.89zM434.2 53.28h-20.56l-4.32 20.74c-1.7 8.17 1.98 10.66 7.58 10.91 2.77.11 5.17-.52 9.07-2.43.85 7.3 2.05 12.23 5.17 17.64-7.49 4.63-12.42 5.89-23.61 5.89-18.64 0-24.73-11.35-21.01-29.1l4.93-23.62h-12.98l4.18-20h12.98l3.94-17.88h22.2l-3.94 17.88h19.89l-3.51 20-.02-.02zm2.16 15.31c4.34-20.8 21.52-37.27 40.17-37.27 9.36 0 14.9 4.04 17.92 9.6l1.6-7.66h21.48l-14.79 70.85h-21.48l1.6-7.66c-5.35 5.56-12.55 9.54-21.99 9.54-18.58 0-28.89-16.47-24.52-37.41v.02zm52.52.06c1.95-9.39-2.77-16.25-11.49-16.25s-16.27 7.01-18.21 16.25c-1.92 9.24 2.56 16.25 11.43 16.25s16.32-6.86 18.28-16.25zM160 104.11 181.09 3h42.68c25.09 0 36.06 10.04 32.18 28.59-2.08 9.96-9.46 17.77-18.15 21.37 8.13 3.18 13.27 11.85 11.11 22.17-3.87 18.57-18.6 28.97-43.77 28.97h-45.15zm27.89-20.22h20.28c9.15 0 15.04-2.74 16.63-10.34 1.54-7.37-3.18-10.19-12.34-10.19h-20.28l-4.29 20.51v.02zm8.49-40.66h18.44c8.51 0 14.56-2.53 16.13-10.04 1.54-7.37-3.47-9.9-11.97-9.9h-18.44l-4.16 19.94z"/></g></g></svg>