<svg xmlns="http://www.w3.org/2000/svg" id="_레이어_2" data-name="레이어 2" viewBox="0 0 167.52 27.37"><defs><style>.cls-1,.cls-2{fill:#ea5520;stroke-width:0}.cls-2{fill:#22ac38}</style></defs><g id="Layer_1" data-name="Layer 1"><path fill="#231815" stroke-width="0" d="M95.47 25.74v-5.67h.84v2.27h2.11v-2.27h.82v5.67h-.82v-2.53h-2.11v2.53h-.84zm5.39-.57c-.41-.43-.61-.97-.61-1.6 0-.3.05-.59.15-.87.1-.27.25-.51.44-.72.2-.22.43-.39.67-.5.25-.1.53-.16.83-.16.23 0 .44.04.64.12.22.09.46.23.72.44v-.44h.79v4.3h-.8v-.47c-.25.21-.49.35-.7.44-.2.08-.4.12-.61.12-.62 0-1.13-.22-1.53-.66zm2.48-2.61c-.26-.28-.56-.41-.92-.41s-.68.13-.95.4c-.27.28-.4.62-.4 1.02s.13.77.4 1.05c.26.28.58.42.96.42.34 0 .65-.14.91-.42.27-.29.4-.62.4-.99 0-.42-.13-.77-.4-1.06zm2.33 3.18v-4.3h.77v.39c.21-.19.4-.31.57-.38.15-.06.32-.09.51-.09.52 0 .92.16 1.21.49.29.34.44.82.44 1.44v2.44h-.79v-2.28c0-.44-.08-.77-.22-.97-.15-.21-.39-.32-.71-.32-.37 0-.63.13-.78.39-.14.25-.21.66-.21 1.21v1.96h-.79zm5.91-.03c-.22-.09-.45-.24-.7-.45v.48h-.81v-5.67h.79v1.81c.25-.21.49-.35.72-.44.2-.08.42-.12.66-.12.3 0 .58.05.83.16.24.11.47.28.68.5.19.22.33.46.44.72.1.28.16.57.16.87 0 .64-.21 1.17-.62 1.61-.41.44-.91.66-1.52.66-.22 0-.43-.04-.62-.12zm-.33-1.1c.26.28.56.42.92.42s.68-.14.95-.42c.27-.28.4-.63.4-1.05s-.13-.74-.4-1.02c-.26-.27-.58-.4-.94-.4s-.67.14-.93.41c-.26.29-.39.64-.39 1.05 0 .38.13.71.4.99zm4.11-3.17h.78v4.3h-.78v-4.3zm0-.56v-.82h.78v.82h-.78zm2.48 1.33h-.57v-.77h.57v-1.37h.79v1.37h.57v.77h-.57v3.53h-.79v-3.53zm5.48 3.53v-5.67h1.19l1.53 4.26 1.52-4.26h1.18v5.67h-.79v-4.58l-1.63 4.58h-.59l-1.61-4.56v4.56h-.81zm7.25-1.83c.11.35.28.63.52.82.22.19.49.29.8.29.22 0 .43-.06.63-.17.18-.1.33-.24.46-.41h.9c-.2.45-.47.79-.82 1.04s-.73.37-1.17.37c-.31 0-.59-.06-.85-.17-.25-.11-.48-.27-.68-.49-.2-.22-.35-.46-.45-.75-.11-.28-.16-.57-.16-.85 0-.31.05-.59.14-.86.1-.26.24-.5.43-.72.21-.23.44-.4.7-.52.25-.12.53-.17.83-.17.36 0 .7.08 1.01.26.32.18.58.42.78.74.12.2.21.41.27.65.06.23.09.5.09.8v.16h-3.42zm.57-1.53c-.22.17-.39.43-.52.77h2.5c-.13-.35-.3-.61-.5-.78-.2-.16-.44-.24-.72-.24s-.54.08-.75.25zm4.34 2.79c-.4-.43-.6-.97-.6-1.61 0-.3.05-.59.15-.87.1-.27.25-.51.44-.72.21-.23.44-.39.68-.5.25-.11.53-.16.83-.16.23 0 .45.04.65.12.22.08.45.23.72.44v-1.81h.79v5.67h-.79v-.47c-.26.2-.5.35-.71.44-.2.08-.4.12-.61.12-.61 0-1.13-.22-1.54-.66zm2.48-2.61c-.26-.28-.56-.41-.92-.41-.37 0-.69.13-.95.4-.26.28-.4.62-.4 1.02s.13.77.4 1.05c.26.28.58.42.96.42.34 0 .64-.14.91-.42.27-.29.4-.62.4-.99 0-.42-.13-.77-.4-1.05zm2.33-1.12h.78v4.3h-.78v-4.3zm0-.56v-.82h.78v.82h-.78zm2.39 4.29c-.41-.43-.61-.97-.61-1.6 0-.3.05-.59.15-.87.1-.27.25-.51.44-.72.2-.22.43-.39.67-.5.25-.1.52-.16.83-.16.23 0 .44.04.64.12.22.09.46.23.72.44v-.44h.79v4.3h-.8v-.47c-.25.21-.49.35-.7.44-.2.08-.4.12-.61.12-.62 0-1.13-.22-1.54-.66zm2.48-2.61c-.26-.28-.56-.41-.92-.41s-.68.13-.95.4c-.27.28-.4.62-.4 1.02s.13.77.4 1.05c.26.28.58.42.96.42.34 0 .65-.14.91-.42.27-.29.4-.62.4-.99 0-.42-.13-.77-.4-1.06zm2.31 3.6c.07-.02.13-.05.17-.1.05-.07.08-.18.1-.32h-.26v-.98h.78v.86c0 .31-.06.55-.19.73-.13.18-.32.3-.59.36v-.56zm4.39-.42v-5.67h.84v5.67h-.84zm2 0v-4.3h.77v.39c.21-.19.4-.31.57-.38.15-.06.32-.09.52-.09.52 0 .92.16 1.21.49.29.34.44.82.44 1.44v2.44h-.79v-2.28c0-.44-.07-.77-.22-.97-.15-.21-.39-.32-.71-.32-.37 0-.63.13-.78.39-.15.25-.22.66-.22 1.21v1.96h-.79zm7.87-.3c-.34.28-.74.42-1.22.42-.3 0-.58-.06-.83-.17-.25-.11-.47-.28-.67-.49-.2-.21-.35-.46-.45-.74-.11-.28-.16-.57-.16-.85 0-.3.05-.59.14-.85.1-.26.24-.5.43-.72.21-.24.45-.42.74-.54.28-.12.58-.17.89-.17.45 0 .84.14 1.16.41.33.28.58.68.75 1.2h-.85c-.12-.26-.29-.46-.49-.58-.19-.12-.42-.18-.7-.18-.36 0-.65.13-.9.4-.25.28-.37.62-.37 1.03s.12.75.37 1.03.56.42.92.42c.25 0 .47-.07.67-.21.2-.14.36-.33.48-.6h.85c-.18.53-.44.94-.78 1.22zm1.98.3v-1.02h.79v1.02h-.79zM54.33 5.31v13.45l3.61-.02V5.35h2.8V1.81h-2.88c-3.73 0-3.53 3.5-3.53 3.5zM41.12 18.32h-3.54v4.16c0 4 3.33 3.67 3.33 3.67h17.11v-3.39h-16.9v-4.44zm-4.62-7.65c0 3.73 3.38 6.75 7.55 6.75s7.55-3.02 7.55-6.75c0-2.19-1.16-4.13-2.97-5.36h3.6V1.94h-5.79V0h-4.76v1.94H35.9v3.37h3.56c-1.8 1.23-2.97 3.18-2.97 5.36zm7.51 3.5c-2.13 0-3.86-1.54-3.86-3.44s1.73-3.44 3.86-3.44 3.86 1.54 3.86 3.44-1.73 3.44-3.86 3.44zM90.96 3.19v9.69c0 3.67 3.33 3.48 3.33 3.48h12.38v-2.29h.01V2.02H90.96v1.17zm3.66 2.13h8.48v7.65h-8.48V5.32zm15.26-3.52h3.6v15.85h-3.6zm8.2 1.39v9.69c0 3.67 3.33 3.48 3.33 3.48h12.21v-3.39h-11.88V5.32h11.89V2.03h-15.54V3.2zm18.39-1.39h3.6v15.85h-3.6zM67.38 15.16h13.08V1.97h-3.59v3.19H67.7V1.99h-3.66v9.69c0 3.67 3.33 3.48 3.33 3.48zm.33-6.7h9.17v3.3h-9.17v-3.3zM82.7 1.8h3.6v14.53h-3.6zm3.55 19.75v-3.42h-7.74v-1.91h-4.76v1.91h-7.72v3.42h5.96c-1.55 1.12-4.34 2.79-7.22 3.35l3.59 2.47s3.02.13 7.74-4.21c4.72 4.35 7.74 4.21 7.74 4.21l3.6-2.47c-2.87-.56-5.66-2.22-7.22-3.35h6.01zM153 1.53c-.16-.01-.32-.02-.49-.02-.16 0-.31 0-.47.01-4.37.07-7.9 3.54-7.93 7.85-.03 4.35 3.53 7.91 7.96 7.96h.75c4.37-.06 7.91-3.54 7.94-7.85.03-4.29-3.42-7.8-7.76-7.96zm-.53 12.19c-2.27 0-4.1-1.94-4.1-4.34s1.84-4.34 4.1-4.34 4.1 1.94 4.1 4.34-1.84 4.34-4.1 4.34zm11.43 3.92h3.62V5.31s.18-3.5-3.54-3.5h-2.88v3.54h2.8v12.29z"/><path d="M23.52 14.8c2.12.04 3.83 2.51 3.83 5.56s-1.74 5.56-3.88 5.56H15.1c1.5-.31 2.95-2.68 2.95-5.56S16.6 15.1 15.1 14.8h8.42" class="cls-2"/><path d="M23.52 1.94c2.12.04 3.83 2.51 3.83 5.56s-1.74 5.56-3.88 5.56H15.1c1.5-.31 2.95-2.68 2.95-5.56S16.6 2.24 15.1 1.94h8.42" class="cls-1"/><path d="M7.91 4.13c0-1.51 1.3-2.73 2.91-2.73s2.91 1.22 2.91 2.73v21.85H7.91v-9.75c.91-.4 1.55-1.31 1.55-2.37s-.64-1.97-1.55-2.37V4.13m-2.09 0v7.36c-.91.4-1.55 1.31-1.55 2.37s.64 1.97 1.55 2.37v9.75H0V4.13C0 2.62 1.3 1.4 2.91 1.4s2.91 1.22 2.91 2.73" class="cls-2"/><circle cx="6.86" cy="13.86" r="2.59" class="cls-1"/></g></svg>