<svg xmlns="http://www.w3.org/2000/svg" width="600" height="183"><path fill="#FFCB05" d="M20.88 179.812H0V4.428L20.88 0v179.812zM76.785 52.513l16.358 11.823-40.21 50.343 46.594 55.835L83.39 183l-54.972-67.17 48.367-63.317zm41.229 94.002c-1.064-39.85 42.603-39.85 73.414-38.61 4.744-42.861-30.057-41.843-59.095-28.78l-6.118-14.745c106.043-43.614 82.946 48.174 85.207 115.476H195.95l-2.483-13.593c-24.693 22.892-76.828 22.714-75.453-19.748zm39.234 18.597a54.83 54.83 0 0 0 34.18-14.08v-29.047c-12.324.222-37.771-1.727-45.84 5.668-13.21 10.007-9.354 39.938 11.66 37.415v.044zm112.25 14.7h-20.925V4.428L269.452 0l.044 179.812zM325.4 52.513l16.358 11.823-39.988 50.343 46.55 55.835L332.226 183l-55.017-67.17 48.19-63.317zm41.229 94.002c-1.064-39.85 42.559-39.85 73.37-38.61 4.743-42.861-30.013-41.843-59.051-28.78L374.83 64.38c34.136-19.837 88.665-15.276 85.163 36.042v79.434H444.52l-2.527-13.593c-24.472 22.892-76.784 22.714-75.365-19.748zm39.234 18.597a54.608 54.608 0 0 0 34.136-14.08v-29.047c-12.28.222-37.727-1.727-45.796 5.668-13.255 10.007-9.354 39.938 11.66 37.415v.044zM544.09 53.532c74.257-4.428 74.833 133.542 0 128.892-74.744 4.65-74.168-133.054 0-128.892zm0 16.781c-46.017-2.125-46.46 97.633 0 95.286 46.815 2.657 46.372-97.411 0-95.153v-.133z"/></svg>