<?xml version="1.0" encoding="UTF-8"?>
<svg id="Layer_1" data-name="Layer 1" xmlns="http://www.w3.org/2000/svg" viewBox="0 0 979.76 1080">
  <defs>
    <style>
      .cls-1 {
        fill: #8ea55d;
      }

      .cls-2 {
        fill: #48774f;
      }

      .cls-3 {
        fill: #477750;
      }

      .cls-4 {
        fill: #8fa55c;
      }

      .cls-5 {
        fill: #e0e671;
      }

      .cls-6 {
        fill: #487750;
      }

      .cls-7 {
        fill: #6b863f;
      }

      .cls-8 {
        fill: #cddd8c;
      }
    </style>
  </defs>
  <path class="cls-6" d="m.16,539.47c0-62.17.44-124.34-.15-186.49-.38-39.65,13.35-73.8,36.93-104.66,12.14-15.88,27.2-28.33,44.6-38.33,91.35-52.5,182.56-105.27,273.81-157.95,19.37-11.18,38.69-22.44,58.1-33.53,19.07-10.9,39.69-16.38,61.58-17.76,6.94-.44,13.87-.88,20.81-.71,30,.75,57.03,10.15,82.96,25.36,86.34,50.64,173.24,100.34,259.92,150.41,21.41,12.37,42.87,24.65,64.28,37.04,24.06,13.93,41.38,34.3,55.05,58.05,9.92,17.25,16.98,35.58,20.06,55.3,1.06,6.71,1.46,13.52,1.46,20.35-.04,126.57-.36,253.15.17,379.72.15,38.12-12.18,71.24-34.13,101.55-14.44,19.93-33.53,34.03-54.75,46.17-100.67,57.7-201.03,115.9-301.57,173.81-13.43,7.73-26.34,16.46-41.01,21.93-13.41,4.99-27.28,7.67-41.45,9.28-9.97,1.13-20.03,1.27-29.89.48-24.46-1.96-47.42-8.77-68.94-21.29-84.92-49.45-170.11-98.43-255.22-147.55-24.5-14.14-48.92-28.39-73.53-42.34-26.8-15.19-45.77-37.6-60.1-64.3C6.4,780.2-.18,754.91,0,727.6c.44-62.69.13-125.4.13-188.09l.02-.04Zm945.05,198.75c1.44-1.19,1.09-2.53.36-3.93.08-.5.13-1.02.21-1.52,1.8-.86,1.11-2.51,1.11-3.84.04-125.15.04-250.31,0-375.46,0-1.38.5-2.93-.79-4.11-.63-2.21-.27-4.6-1.4-6.71.17-2.11-.21-4.18-.61-6.25-3.57-18.28-10.59-35.24-20.22-51.06-12.18-20.05-27.22-37.52-47.76-49.45-42.76-24.84-85.65-49.49-128.5-74.22-59.26-34.2-118.66-68.1-177.65-102.74-21.47-12.6-43.97-20.45-68.77-21.81-7.4-1.19-14.79-1.17-22.19,0-14.52.77-28.62,3.61-42.36,8.48-11.64,4.12-21.94,10.74-32.53,16.84-51.87,29.89-103.72,59.79-155.57,89.72-43.41,25.05-86.63,50.45-130.29,75.06-21.41,12.07-40.63,26.2-54.77,46.61-16.13,23.31-27.49,48.42-29.6,77.09-.1.1-.27.19-.25.27.02.23.12.46.19.67-.13,2.49-.36,4.99-.36,7.48,0,120.35-.04,240.68.02,361.04,0,4.85.35,9.74.94,14.56,2.53,20.12,9.55,38.75,19.68,56.19,12.47,21.48,28.16,40.11,49.89,52.77,42.76,24.9,85.67,49.49,128.5,74.24,42.05,24.27,84.08,48.57,126.11,72.84,20.51,11.84,40.97,23.73,61.54,35.49,15.31,8.75,32.09,12.93,49.4,15.37.69.81,1.63.73,2.55.73h34.76c.81,0,1.59,0,2.19-.67,18.15-2.28,35.6-6.77,51.6-16.02,10.59-6.12,21.18-12.24,31.79-18.36,78.27-45.19,156.53-90.37,234.8-135.56,15.84-9.15,31.73-18.19,47.52-27.43,26.89-15.75,44.87-39.32,57.97-67,5.87-12.39,10.38-25.28,11.95-39.02.17-.1.36-.17.54-.27h.02Z"/>
  <path class="cls-5" d="m469.58,1041.81c-17.3-2.44-34.09-6.62-49.4-15.37-20.56-11.74-41.03-23.63-61.54-35.49-42.05-24.29-84.08-48.57-126.11-72.84-42.83-24.73-85.75-49.34-128.5-74.24-21.73-12.66-37.43-31.29-49.89-52.77-10.13-17.46-17.15-36.06-19.68-56.19-.61-4.81-.94-9.71-.94-14.56-.06-120.35-.04-240.68-.02-361.04,0-2.49.23-4.99.36-7.48.02-.33.04-.63.06-.96,2.11-28.68,13.47-53.79,29.6-77.09,14.14-20.41,33.36-34.55,54.77-46.61,43.66-24.59,86.88-50.01,130.29-75.06,51.85-29.92,103.7-59.85,155.57-89.72,10.59-6.1,20.89-12.72,32.53-16.84,13.73-4.87,27.83-7.71,42.36-8.48h22.19c24.8,1.36,47.3,9.21,68.77,21.81,58.99,34.64,118.41,68.54,177.65,102.74,42.83,24.73,85.73,49.38,128.5,74.22,20.54,11.93,35.58,29.41,47.76,49.45,9.63,15.84,16.65,32.78,20.22,51.06.4,2.07.77,4.12.61,6.25-.79,3.97.69,7.79.69,11.74-.08,123.06-.06,246.11-.08,369.19,0,4.97-1.36,9.9-.67,14.9-1.57,13.73-6.08,26.63-11.95,39.02-13.1,27.68-31.08,51.26-57.97,67-15.77,9.25-31.67,18.28-47.52,27.43-78.27,45.19-156.53,90.37-234.8,135.56-10.59,6.12-21.2,12.24-31.79,18.36-15.98,9.25-33.45,13.72-51.6,16.02-13.16-.02-26.32-.04-39.5-.06v.02Zm414.34-671.12c1.27-2.84.21-5.35-1.15-7.81-2.97-11.32-6.48-22.44-11.89-32.88-11.07-21.39-25.26-40.21-46.36-52.58-39.94-23.4-80.15-46.38-120.24-69.52-43.97-25.38-87.91-50.8-131.94-76.08-11.39-6.54-22.29-14-34.64-18.76-14.25-5.51-29.14-7.81-44.33-8.34-.33,0-.65-.02-.98-.04h-3.15c-3.01.15-6.04.31-9.05.48-15.52.84-30.63,3.8-44.54,10.82-18.32,9.27-35.76,20.18-53.54,30.42-71.17,40.99-142.1,82.39-213.5,122.96-22.29,12.66-41.03,28.35-54.06,50.53-10.24,17.46-17.57,35.87-18.91,56.3-.42.31-.46.61-.06.98-.15,2.49-.42,4.99-.42,7.48,0,103.49-.04,206.98,0,310.47,0,13.12,2.26,25.92,6.85,38.23,12.24,32.74,32.3,58.83,63.9,75.14,8.98,4.64,17.11,10.88,26.7,14.41,16.29,5.98,32.78,11.36,49.47,16.09,33.82,9.57,67.91,17.63,103.24,18.91,5.1.84,10.19.9,15.29,0,17.99-.17,34.74-4.81,50.43-13.62,11.89-6.68,21.37-16,30.48-25.97,17.86-19.51,29.06-42.32,35.12-67.87,4.14-17.46,4.2-35.18,3.99-52.96-.04-3.09,0-6.18,0-9.44-1.84.52-2.49,1.73-3.38,2.63-7.58,7.77-15.92,14.6-25.23,20.12-4.7,2.8-9.15,6.27-14.79,7.16-1.36-1.15-3.11-1.32-4.72-1.8-17.69-5.22-34.61-12.16-50.12-22.25,18.84-11.38,35.74-25.03,49.87-41.99,19.66-23.58,32.76-50.35,39.44-80.3.42-1.88.08-3.22-1.48-4.49-11.13-9.09-22.62-17.63-35.6-23.98-18.38-8.98-37.62-15.61-57.18-21.37-32.28-9.5-65.13-16.73-98.18-22.98-15.75-2.97-31.46-6.16-47.36-8.13-.15-.15-.25-.33-.29-.54-11.74-22.58-23.25-45.27-34.36-68.64,2.28,0,3.86-.15,5.39.02,28.45,3.17,56.9,6.46,85.21,10.82,35.2,5.41,70.17,11.82,104.49,21.52,29.43,8.33,57.34,19.45,78.69,42.7.84,1.17.61,2.34.33,3.7-1.88,8.73-2.99,17.57-3.34,26.47-.46,11.72.77,23.33,3.22,34.78.42,2,.27,4.43,2.44,6.06.52-.9.98-1.53,1.3-2.24,7.29-15.83,16.19-30.63,27.51-43.95,1.15-1.34,1.71-3.36,3.97-3.38.31.86.58,1.75.9,2.61,11.74,29.31,29.79,54.06,54.02,74.26,15.79,13.16,33.24,23.54,52.6,30.65.25,1.48-.9,2.13-1.78,2.82-9.71,7.62-19.68,14.85-30.58,20.72-5.97,3.22-12.01,6.33-18.01,9.5-9.8-1.52-18.4-6.39-27.76-10.36v4.01c0,28.81,0,57.61-.02,86.42,0,3.15.33,6.31-.44,9.42-.08.71-.15,1.4-.23,2.11-.27,14.87-3.57,29.2-8.34,43.16-11.32,33.07-30.71,60.67-57.64,82.85-14.67,12.1-30.58,22.41-48.8,28.49-16.78,5.6-34.16,8.36-51.75,9.92-5.05.44-10.09.82-15.23,1.25.61,1.69,1.88,1.98,2.86,2.53,21.98,12.72,44.14,25.13,65.93,38.17,16.09,9.63,33.19,15.73,51.83,17.48,28.72,2.69,55.88-1.36,81.33-16.15,84.86-49.32,169.79-98.52,255.07-147.11,22.87-13.02,42.22-28.91,55.4-51.87,8.44-14.71,15.08-30.06,17.3-47.05.21-.1.42-.23.61-.36.9-.71.92-1.5.19-2.32l.19-1.63c1.88-.82,1.11-2.51,1.11-3.82.04-108.82.04-217.65,0-326.49,0-1.38.54-2.93-.84-4.05-.15-.81-.33-1.59-.48-2.4l.02-.04Z"/>
  <path class="cls-8" d="m944.68,738.49c-.69-5.01.65-9.92.67-14.9,0-123.06,0-246.11.08-369.19,0-3.95-1.48-7.77-.69-11.74,1.13,2.09.77,4.51,1.4,6.69,0,4.6.04,9.21.04,13.81v352.65c0,5.64-.23,11.28-.36,16.94-.08.5-.13,1.02-.21,1.52-.12,1.3-.25,2.61-.36,3.93-.17.1-.36.17-.54.27l-.02.02Z"/>
  <path class="cls-7" d="m945.77,732.78c.13-5.64.36-11.28.36-16.94.02-117.55,0-235.1,0-352.65,0-4.6-.02-9.21-.04-13.81,1.29,1.17.79,2.7.79,4.11.02,125.15.02,250.31,0,375.46,0,1.32.69,2.99-1.11,3.84h0Z"/>
  <path class="cls-7" d="m469.58,1041.81c13.16.02,26.32.04,39.5.06-.59.65-1.38.67-2.19.67h-34.76c-.92,0-1.86.08-2.55-.73Z"/>
  <path class="cls-1" d="m501.19,37.12h-22.19c7.4-1.17,14.79-1.19,22.19,0Z"/>
  <path class="cls-7" d="m945.21,738.22c.12-1.3.25-2.61.36-3.93.73,1.38,1.09,2.74-.36,3.93Z"/>
  <path class="cls-4" d="m33.9,350.91c-.02.33-.04.63-.06.96-.08-.23-.15-.44-.19-.67,0-.08.15-.17.25-.27v-.02Z"/>
  <path class="cls-3" d="m535.41,747.99c.75-3.11.42-6.29.44-9.42.04-28.81.02-57.61.02-86.42v-4.01c9.34,3.97,17.94,8.86,27.76,10.36,1.13,1,2.59,1.21,3.97,1.52,7.29,1.61,14.64,2.65,22.1,3.38,12.01,1.15,23.81.23,35.62-1.65,13.85-2.21,27.05-6.54,39.59-12.64,6.29-3.07,12.85-5.95,18.13-10.82.61-.23,1.32-.33,1.84-.67,14.64-10.11,27.6-21.87,37.31-37,12.99-20.26,22.9-42.03,31.84-64.26,20.47-50.97,35.95-103.53,50.28-156.47.17-.63.4-1.27-.46-1.86-24.11,7.14-48.19,14.85-72.82,22.9,8.11-24.76,15.86-48.84,23.1-73.53-1.8.36-3.07.54-4.3.86-37.94,10.24-75.68,21.24-112.79,34.18-30.08,10.49-59.75,21.94-87.99,36.87-19.57,10.34-37.04,23.15-50.09,41.36-1.9,2.65-4.24,5.05-5.28,8.25-1.07.23-1.29,1.23-1.76,1.98-8.59,13.2-14.71,27.49-18.89,42.64-.33,1.15-.02,2.82-1.94,2.99-21.35-23.23-49.26-34.36-78.69-42.7-34.3-9.71-69.29-16.11-104.49-21.52-28.31-4.35-56.74-7.65-85.21-10.82-1.53-.17-3.13-.02-5.39-.02,11.11,23.36,22.62,46.06,34.36,68.64-16.61-2.49-33.24-5.03-49.87-7.48-8.67-1.29-17.38-2.42-26.07-3.63-.33,1.63.54,2.59,1,3.63,11.55,25.95,23.65,51.66,36.49,77,18.15,35.81,37.16,71.15,60.71,103.8,12.6,17.48,26.36,33.91,45.42,44.89,5.91,3.4,11.55,7.35,18.34,8.92.27,1.11,1.25,1.19,2.09,1.53,22.5,9.3,45.75,13.85,70.23,11.78,12.91-1.09,25.42-3.47,37.52-7.98,3.36-1.25,7.04-1.9,9.73-4.6,5.66-.88,10.09-4.35,14.79-7.16,9.32-5.54,17.67-12.37,25.23-20.12.88-.9,1.53-2.11,3.38-2.63,0,3.26-.04,6.35,0,9.44.21,17.76.15,35.51-3.99,52.96-6.08,25.55-17.28,48.36-35.12,67.87-9.11,9.96-18.61,19.3-30.48,25.97-15.69,8.8-32.44,13.45-50.43,13.62-5.1-.4-10.19-.42-15.29,0-35.33-1.29-69.44-9.34-103.24-18.91-16.69-4.72-33.19-10.09-49.47-16.09-9.57-3.53-17.71-9.76-26.7-14.41-31.59-16.31-51.68-42.39-63.9-75.14-4.6-12.32-6.85-25.09-6.85-38.23-.04-103.49-.04-206.98,0-310.47,0-2.49.27-4.99.42-7.48,0-.33.04-.65.06-.96,1.34-20.43,8.65-38.86,18.91-56.3,13.04-22.19,31.77-37.87,54.06-50.53,71.4-40.57,142.34-81.97,213.5-122.96,17.78-10.24,35.22-21.18,53.54-30.42,13.91-7.02,29.02-9.96,44.54-10.82,3.01-.17,6.04-.33,9.05-.48.58.56,1.17.56,1.75,0h1.4c.33.33.65.35.98.04,15.19.54,30.08,2.84,44.33,8.34,12.35,4.78,23.25,12.22,34.64,18.76,44.02,25.28,87.97,50.7,131.94,76.08,40.09,23.13,80.3,46.12,120.24,69.52,21.1,12.37,35.28,31.19,46.36,52.58,5.41,10.44,8.9,21.56,11.89,32.88.13,1.73.25,3.43.36,5.16-.96,4.35.58,8.59.58,12.93v317.86c0,4.32-1.5,8.57-.58,12.93-2.21,17-8.84,32.34-17.3,47.05-13.18,22.94-32.53,38.84-55.4,51.87-85.29,48.59-170.21,97.79-255.07,147.11-25.46,14.79-52.62,18.84-81.33,16.15-18.66-1.75-35.74-7.83-51.83-17.48-21.79-13.04-43.95-25.46-65.93-38.17-.98-.58-2.24-.86-2.86-2.53,5.16-.42,10.21-.81,15.23-1.25,17.59-1.55,34.97-4.32,51.75-9.92,18.22-6.08,34.13-16.38,48.8-28.49,26.93-22.18,46.33-49.78,57.64-82.85,4.78-13.97,8.08-28.29,8.34-43.16.5-.65.69-1.34.23-2.11l-.02-.02Zm213.14-364.6c3.24,0,6.08-1.55,9.05-2.47,15.04-4.64,30.04-9.44,45.08-14.12,1.65-.52,2.69-1.32,3.15-3.07,4.11-15.58,7.96-31.21,11.59-46.92.65-2.84.15-3.05-2.53-2.36-15.23,3.86-30.5,7.56-45.79,11.2-2.51.59-3.76,1.88-4.45,4.3-4.62,16.29-9.78,32.4-15.1,48.46-.54,1.61-1.25,3.2-.98,4.99-.06.12-.12.21-.17.33.06-.12.12-.23.17-.33h-.02Zm-613.79,34.2c-3.15-.56-2.38,1.06-1.61,2.86,6.31,14.85,12.58,29.69,18.86,44.56.56,1.3,1.29,2.03,2.86,2.23,6.35.79,12.68,1.73,19.03,2.67,11.38,1.71,22.73,3.49,34.11,5.1,1.17.17,2.8,1.42,3.59.08.79-1.32-.63-2.7-1.3-3.91-8.11-14.89-15.42-30.19-22.85-45.42-1.42-2.92-3.11-4.16-6.12-4.39-15.52-1.21-31.04-2.49-46.54-3.74l-.02-.02Z"/>
  <path class="cls-2" d="m613.99,625.47c-19.34-7.12-36.81-17.51-52.6-30.65-24.23-20.2-42.28-44.94-54.02-74.26-.35-.84-.61-1.73-.9-2.61.04-.65.08-1.29.1-1.92,12.87-15.33,27.6-28.49,44.77-38.92,23.23-14.12,47.73-25.63,72.68-36.24,33.9-14.41,68.52-26.91,103.43-38.65.82-.27,1.75-1.06,2.55-.27.81.81,0,1.71-.29,2.53-3.78,10.93-7.44,21.91-11.34,32.8-14.75,41.11-30.54,81.79-50.68,120.64-13.26,25.59-29.04,49.17-51.79,67.43-.63.04-1.29.08-1.92.12h0Z"/>
  <path class="cls-2" d="m231.94,490.61c15.92,1.98,31.63,5.16,47.36,8.13,33.05,6.25,65.87,13.49,98.18,22.98,19.57,5.75,38.81,12.39,57.18,21.37,12.99,6.35,24.46,14.89,35.6,23.98,1.55,1.27,1.88,2.61,1.48,4.49-6.68,29.96-19.76,56.74-39.44,80.3-14.16,16.96-31.04,30.63-49.87,41.99-.44.04-.9.06-1.34.1-1.4-.98-2.74-2-4.18-2.9-11.85-7.44-23-15.79-32.71-25.93-13.97-14.58-26.11-30.63-37.52-47.25-27.93-40.65-51.74-83.71-74.72-127.26h-.02Z"/>
  <path class="cls-5" d="m231.94,490.61c22.98,43.54,46.79,86.63,74.72,127.26,11.41,16.61,23.56,32.67,37.52,47.25,9.71,10.15,20.85,18.49,32.71,25.93,1.44.9,2.8,1.94,4.18,2.9-13.72,8.17-28.41,13.95-43.74,18.2-6.52,1.8-13.1,3.36-19.64,5.03-6.79-1.59-12.45-5.52-18.34-8.92-19.05-10.97-32.8-27.41-45.42-44.89-23.56-32.65-42.57-67.98-60.71-103.8-12.85-25.34-24.94-51.04-36.49-77-.46-1.04-1.32-2-1-3.63,8.69,1.21,17.38,2.34,26.07,3.63,16.63,2.46,33.24,4.99,49.87,7.48.04.21.13.4.29.54l-.02.02Z"/>
  <path class="cls-4" d="m613.99,625.47c.63-.04,1.29-.08,1.92-.12.46.44.84,1.09,1.4,1.29,15.37,5.35,31.09,8.88,47.3,10.59,6.16.65,12.32.15,18.42,1.04-5.28,4.89-11.84,7.75-18.13,10.82-12.55,6.1-25.74,10.45-39.59,12.64-11.82,1.88-23.61,2.8-35.62,1.65-7.46-.71-14.81-1.76-22.1-3.38-1.4-.31-2.84-.5-3.97-1.52,6-3.17,12.05-6.27,18.01-9.5,10.9-5.87,20.87-13.1,30.58-20.72.88-.69,2.03-1.36,1.78-2.82v.02Z"/>
  <path class="cls-4" d="m317.69,717.2c6.56-1.67,13.14-3.22,19.64-5.03,15.33-4.24,30.02-10.03,43.74-18.2.44-.04.9-.06,1.34-.1,15.52,10.09,32.44,17.03,50.12,22.25,1.61.48,3.36.65,4.72,1.8-2.69,2.7-6.39,3.36-9.73,4.6-12.1,4.51-24.61,6.89-37.52,7.98-24.5,2.07-47.73-2.47-70.23-11.78-.84-.35-1.82-.44-2.09-1.53h0Z"/>
  <path class="cls-4" d="m506.58,516.01c-.04.63-.08,1.29-.1,1.92-2.26.04-2.82,2.03-3.97,3.4-11.3,13.31-20.2,28.14-27.51,43.95-.33.71-.79,1.34-1.3,2.24-2.17-1.63-2.01-4.05-2.44-6.06-2.46-11.45-3.68-23.06-3.22-34.78.35-8.92,1.46-17.76,3.34-26.47.29-1.36.52-2.53-.33-3.7,1.92-.17,1.61-1.82,1.94-2.99,4.18-15.15,10.32-29.45,18.89-42.64.48-.75.71-1.75,1.76-1.98,1.02,5.7.46,11.47.98,17.23,1.46,15.98,4.91,31.46,10.01,46.63.4,1.17.4,2.69,1.9,3.26h.04Z"/>
  <path class="cls-7" d="m883.14,711.75c-.92-4.35.58-8.59.58-12.93v-317.86c0-4.32-1.53-8.56-.58-12.91.27.88.52,1.76.79,2.65.15.81.33,1.59.48,2.4.04,11.84.12,23.69.12,35.53v285.44c0,4.45-.25,8.92-.38,13.37-.06.54-.13,1.09-.19,1.63-.06.77-.12,1.55-.19,2.32-.19.13-.4.25-.61.36h0Z"/>
  <path class="cls-8" d="m884.12,707.44c.13-4.45.38-8.92.38-13.37.02-95.15.02-190.29,0-285.44,0-11.84-.08-23.69-.12-35.53,1.38,1.11.84,2.69.84,4.05.02,108.82.02,217.65,0,326.49,0,1.3.77,2.99-1.11,3.82v-.02Z"/>
  <path class="cls-4" d="m345.33,857.89c5.1-.44,10.19-.42,15.29,0-5.1.9-10.19.86-15.29,0Z"/>
  <path class="cls-8" d="m883.92,370.68c-.27-.88-.52-1.76-.79-2.65-.12-1.73-.25-3.43-.36-5.16,1.36,2.46,2.42,4.95,1.15,7.81Z"/>
  <path class="cls-8" d="m535.41,747.99c.44.77.25,1.46-.23,2.11.08-.71.15-1.4.23-2.11Z"/>
  <path class="cls-8" d="m883.75,711.39c.06-.77.12-1.55.19-2.32.75.84.71,1.61-.19,2.32Z"/>
  <path class="cls-4" d="m490.99,104.66c-.58.56-1.17.56-1.75,0h1.75Z"/>
  <path class="cls-4" d="m493.37,104.7c-.35.31-.67.29-.98-.04.33,0,.65.02.98.04Z"/>
  <path class="cls-1" d="m95.61,376.19c0,.33-.04.65-.06.96-.4-.35-.38-.67.06-.96Z"/>
  <path class="cls-5" d="m506.58,516.01c-1.5-.58-1.52-2.09-1.9-3.26-5.1-15.15-8.56-30.63-10.01-46.63-.52-5.75.04-11.53-.98-17.23,1.04-3.2,3.38-5.6,5.28-8.25,13.04-18.2,30.52-31,50.09-41.36,28.24-14.92,57.91-26.38,87.99-36.87,37.12-12.97,74.85-23.96,112.79-34.18,1.23-.33,2.51-.52,4.3-.86-7.23,24.69-14.98,48.76-23.1,73.53,24.63-8.06,48.7-15.77,72.82-22.9.88.59.63,1.23.46,1.86-14.33,52.94-29.81,105.5-50.28,156.47-8.94,22.23-18.86,44-31.84,64.26-9.71,15.12-22.67,26.89-37.31,37-.52.36-1.23.46-1.84.67-6.1-.88-12.26-.38-18.42-1.04-16.21-1.71-31.96-5.24-47.3-10.59-.56-.19-.94-.84-1.4-1.29,22.77-18.24,38.54-41.84,51.79-67.43,20.14-38.86,35.93-79.53,50.68-120.64,3.91-10.9,7.58-21.87,11.34-32.8.29-.82,1.09-1.73.29-2.53-.81-.81-1.73,0-2.55.27-34.91,11.72-69.52,24.23-103.43,38.65-24.96,10.61-49.45,22.12-72.68,36.24-17.17,10.44-31.9,23.59-44.77,38.92v-.02Z"/>
  <path class="cls-1" d="m748.55,383.38c-.29-1.78.44-3.38.98-4.99,5.31-16.06,10.47-32.17,15.1-48.46.69-2.44,1.94-3.7,4.45-4.3,15.29-3.64,30.56-7.35,45.79-11.2,2.69-.67,3.18-.46,2.53,2.36-3.63,15.71-7.48,31.34-11.59,46.92-.46,1.75-1.48,2.55-3.15,3.07-15.04,4.68-30.02,9.48-45.08,14.12-2.97.92-5.81,2.46-9.05,2.47h.02Z"/>
  <path class="cls-1" d="m134.75,417.61c15.52,1.25,31.02,2.53,46.54,3.74,3.03.23,4.7,1.48,6.12,4.39,7.42,15.23,14.75,30.52,22.85,45.42.67,1.23,2.09,2.59,1.3,3.91-.81,1.34-2.44.1-3.59-.08-11.38-1.59-22.75-3.4-34.11-5.1-6.33-.94-12.66-1.88-19.03-2.67-1.57-.19-2.3-.92-2.86-2.23-6.27-14.87-12.55-29.71-18.86-44.56-.77-1.78-1.53-3.41,1.61-2.86l.02.02Z"/>
  <path class="cls-1" d="m748.55,383.38c-.06.12-.12.23-.17.33.06-.12.12-.21.17-.33h0Z"/>
</svg>